# xmcd CD database file
#
# Track frame offsets:
#	150
#	19057
#	40129
#	60846
#	80479
#	100153
#	121899
#	143425
#	171455
#	192766
#
# Disc length: 2860 seconds
#
# Revision: 0
# Processed by: cddbd v1.5.2PL0 Copyright (c) Steve Scherf et al.
# Submitted via: CDex 1.70beta2
#
DISCID=760b2a0a
DTITLE=Dan Moretti - That's Right
DYEAR=1999
DGENRE=Jazz
TTITLE0=Cynthia
TTITLE1=When It Is Real
TTITLE2=Nights of Waiting
TTITLE3=That's Right
TTITLE4=Crusade
TTITLE5=Tiara
TTITLE6=Los Gatos Hills
TTITLE7=Deb
TTITLE8=Good Lookin' Out
TTITLE9=Street Smart
EXTD=YEAR: 1999
EXTT0=
EXTT1=
EXTT2=
EXTT3=
EXTT4=
EXTT5=
EXTT6=
EXTT7=
EXTT8=
EXTT9=
PLAYORDER=
